<svg xmlns="http://www.w3.org/2000/svg" width="48.268" height="39.874" viewBox="0 0 48.268 39.874"><defs><style>.a,.b{fill:#369;}.b{stroke:#369;stroke-width:0.5px;}</style></defs><g transform="translate(-0.961 0)"><path class="a" d="M200.864-467.639a8.061,8.061,0,0,0-2.249.964c-.844.552-3.535,2.721-4.961,4.007-1.948,1.757-1.938,1.747-2.531,1.687-.311-.03-3.153-1.044-7.331-2.611-3.756-1.406-7.14-2.661-7.531-2.782a3.519,3.519,0,0,0-2.169-.07,6.115,6.115,0,0,0-2.6,2.912,1.822,1.822,0,0,0,.562,1.717c.241.241,2.259,1.7,4.479,3.233,4.82,3.314,5.423,3.766,5.975,4.449l.432.522-1.235,1.175c-2.842,2.741-4.7,4.489-4.79,4.519a10.062,10.062,0,0,1-1.627-.7c-1.4-.663-1.587-.733-2.139-.723a2.223,2.223,0,0,0-.924.171,6.4,6.4,0,0,0-1.838,1.838c-.351.713-.231,1.074.743,2.28.452.562,1.225,1.546,1.717,2.179s1.747,2.229,2.792,3.535c1.657,2.079,1.958,2.41,2.41,2.631,1.607.813,3.364-.512,3.464-2.6a7.134,7.134,0,0,0-.321-2.109l-.361-1.406.382-.321c.311-.271,4.629-3.625,5.754-4.479l.372-.281.482.833c.3.532,1.255,2.832,2.611,6.3,1.4,3.565,2.229,5.583,2.42,5.824.773.954,1.7.944,3.244-.05a3.422,3.422,0,0,0,1.5-1.647c.492-1.054.452-1.506-.773-10.434-.833-5.975-1.085-8.033-1.014-8.244.11-.291.11-.291,3.354-3.033,3.033-2.561,3.635-3.173,4.479-4.619,1.275-2.179,1.175-3.776-.261-4.529A4.542,4.542,0,0,0,200.864-467.639Zm1.918,1.717c.382.251.311.693-.271,1.838a10.165,10.165,0,0,1-1.034,1.647c-.3.372-1.747,1.657-3.334,3-3.474,2.912-3.595,3.043-3.8,3.715a3.653,3.653,0,0,0-.161.733c0,.121.5,3.826,1.1,8.244s1.1,8.234,1.1,8.485a2.747,2.747,0,0,1-1.647,2.32c-.633.281-.743.251-.974-.291-.12-.261-.974-2.531-1.908-5.041s-1.928-5.021-2.2-5.573a22.727,22.727,0,0,0-1.747-3.013l-.221-.281-1,.733c-1.818,1.346-7.12,5.443-7.29,5.644-.261.291-.221.753.171,2.32a12.343,12.343,0,0,1,.351,1.858c0,.833-.713,1.667-1.285,1.486-.151-.05-4.358-5.332-6.517-8.184l-.422-.562.4-.412a3.782,3.782,0,0,1,.733-.592l.311-.161,1.777.854a12.84,12.84,0,0,0,2.059.864,1.2,1.2,0,0,0,.552-.181c.251-.161,6.919-6.447,7.19-6.768.1-.131.03-.281-.4-.944-.924-1.406-1.6-1.958-6.377-5.252-2.43-1.677-4.549-3.143-4.7-3.274-.271-.211-.281-.241-.161-.542a5.114,5.114,0,0,1,.854-1.014c.572-.562.773-.7,1.014-.7.432,0,1.095.241,8.435,2.993,3.535,1.326,6.7,2.49,7.019,2.581a2.819,2.819,0,0,0,2.2-.191,13.292,13.292,0,0,0,1.426-1.175c1.185-1.084,3.846-3.324,4.77-4.017a6.213,6.213,0,0,1,2.33-1.2A1.94,1.94,0,0,1,202.782-465.922Z" transform="translate(-155.297 467.756)"/><path class="a" d="M76-227.571c-.1.06-2.059,1.526-4.368,3.264a42.765,42.765,0,0,0-4.328,3.464.653.653,0,0,0,.351.954.6.6,0,0,0,.653-.04c.351-.181,8.1-6,8.5-6.387a.785.785,0,0,0,.161-1.044A.847.847,0,0,0,76-227.571Z" transform="translate(-62.65 251.757)"/><path class="b" d="M6.428-195.467c-6.171,4.634-6.256,4.7-6.277,4.952a.933.933,0,0,0,.049.395.55.55,0,0,0,.654.139c.169-.09,12.146-9.052,12.427-9.295a.538.538,0,0,0,.014-.741C12.937-200.37,13.162-200.516,6.428-195.467Z" transform="translate(4.421 226.24)"/><path class="a" d="M101.37-166.555c-2.922,2.219-10.263,7.893-10.4,8.044a.8.8,0,0,0-.141.844.705.705,0,0,0,.844.392c.191-.05,10.132-7.572,10.946-8.285.482-.412.462-.984-.04-1.255C102.2-167.007,101.872-166.936,101.37-166.555Z" transform="translate(-83.84 197.128)"/><path class="a" d="M32.453-149.945a3.968,3.968,0,0,0-1.125,1.064.79.79,0,0,0,.241.844c.442.231.753.11,1.838-.7l1.074-.8v-.442c0-.492-.131-.643-.623-.723C33.557-150.758,33.417-150.678,32.453-149.945Z" transform="translate(-30.337 182.556)"/></g></svg>