<svg xmlns="http://www.w3.org/2000/svg" width="22.701" height="22.646" viewBox="0 0 22.701 22.646"><defs><style>.a{fill:#326699;stroke:#3f6f9f;stroke-width:0.5px;}</style></defs><g transform="translate(-12.807 498.704)"><path class="a" d="M24-498.426a4.727,4.727,0,0,0-1.12,1.029,5.372,5.372,0,0,0-.855,1.582,18.172,18.172,0,0,0-.1,3.109l-.014,2.839L18.2-488.12c-3.991,1.879-4.138,1.961-4.522,2.474a2.965,2.965,0,0,0-.617,2.039c-.023.7-.018.736.078.855a.286.286,0,0,0,.233.128c.078,0,2.021-.443,4.321-.983s4.188-.983,4.2-.983.023,1.093.023,2.423v2.423l-.375.174a18.646,18.646,0,0,0-2.574,1.3,1.719,1.719,0,0,0-.352.48,1.445,1.445,0,0,0-.165.777c-.023.517.027.663.229.713.059.018,1.234-.238,2.794-.6l2.688-.631,2.693.631a17.865,17.865,0,0,0,2.807.59c.183-.069.224-.2.2-.7a1.438,1.438,0,0,0-.165-.773,1.719,1.719,0,0,0-.352-.48,18.74,18.74,0,0,0-2.57-1.3l-.379-.174v-2.423c0-1.33.014-2.423.027-2.423s1.911.443,4.206.983,4.238.983,4.312.983a.286.286,0,0,0,.233-.128c.1-.119.1-.155.078-.855a2.987,2.987,0,0,0-.613-2.039c-.393-.521-.508-.581-4.513-2.469L26.4-489.867l-.014-2.816a13.965,13.965,0,0,0-.114-3.159,4.493,4.493,0,0,0-.636-1.308,6.727,6.727,0,0,0-1.143-1.161C24.258-498.476,24.162-498.5,24-498.426Zm.489,1.02a4.019,4.019,0,0,1,1.1,1.678c.091.265.1.4.123,3.26a16.581,16.581,0,0,0,.091,3.05c.037.037,1.655.809,3.589,1.719s3.7,1.747,3.918,1.861a2.269,2.269,0,0,1,1.271,2.149c0,.16-.018.288-.046.288s-1.925-.444-4.225-.983-4.229-.983-4.293-.983a.28.28,0,0,0-.21.119c-.1.119-.1.16-.1,2.972v2.848l.105.114a13.172,13.172,0,0,0,1.5.759c.768.361,1.459.7,1.536.759a.934.934,0,0,1,.329.626l-.014.11-2.5-.59-2.506-.59-2.5.59-2.506.59-.014-.11a.917.917,0,0,1,.325-.617c.082-.064.773-.407,1.541-.764a13.975,13.975,0,0,0,1.5-.764l.1-.114v-2.848c0-2.812,0-2.853-.1-2.972a.28.28,0,0,0-.21-.119c-.064,0-2,.443-4.293.983s-4.2.983-4.225.983a1.828,1.828,0,0,1,0-.85,2.244,2.244,0,0,1,1.175-1.564c.192-.1,1.957-.937,3.918-1.861s3.6-1.705,3.635-1.742a16.835,16.835,0,0,0,.091-3.072c.023-2.908.027-3.013.119-3.255a4.217,4.217,0,0,1,.567-1.052,4.05,4.05,0,0,1,.869-.869A1.526,1.526,0,0,1,24.487-497.406Z" transform="translate(0)"/></g></svg>