<svg xmlns="http://www.w3.org/2000/svg" width="75.357" height="75.382" viewBox="0 0 75.357 75.382"><defs><style>.a{fill:#369;}</style></defs><g transform="translate(-0.168 512)"><path class="a" d="M8.874-511.779A11.443,11.443,0,0,0,1.4-505.9a10.054,10.054,0,0,0-1.207,5.683A9.1,9.1,0,0,0,.644-497.2a11.723,11.723,0,0,0,2.429,4.181c.618.648.81.751,1.281.751.53,0,.721-.162,3.843-3.269l3.283-3.268,1.1,1.089a12.88,12.88,0,0,1,1.1,1.178,16.319,16.319,0,0,1-1.045,1.325,35.482,35.482,0,0,0-5.58,9.717,40.462,40.462,0,0,0-1.575,6.11,49.433,49.433,0,0,0-.074,9.57,33.569,33.569,0,0,0,6.552,15.533,35.013,35.013,0,0,0,6.478,6.331l.707.5-4.505,4.505c-4.3,4.3-4.491,4.52-4.491,5.05a1.22,1.22,0,0,0,1.355,1.281c.618,0,.633,0,5.286-4.667l4.667-4.652,1.826.9a33.732,33.732,0,0,0,9.541,3.077,44.637,44.637,0,0,0,10.012,0A33.117,33.117,0,0,0,52.9-445.275l1.281-.677,4.682,4.667c4.608,4.579,4.7,4.667,5.286,4.667a1.289,1.289,0,0,0,1.369-1.3c0-.5-.28-.81-4.491-5.035l-4.505-4.505.707-.5a36.026,36.026,0,0,0,4.682-4.181,32.775,32.775,0,0,0,8.215-16.784,25.321,25.321,0,0,0,.324-5.462,26.3,26.3,0,0,0-.339-5.477,33.357,33.357,0,0,0-7.671-16.092L62-496.467l1.134-1.134,1.119-1.148L67.5-495.51c3.136,3.121,3.283,3.239,3.828,3.239.515,0,.663-.1,1.325-.8a11,11,0,0,0,2.871-7.671,10.949,10.949,0,0,0-3.416-8.112A10.893,10.893,0,0,0,64.262-512a11.01,11.01,0,0,0-7.671,2.871c-.707.663-.8.81-.8,1.325,0,.545.118.707,3.269,3.857l3.269,3.283-1.09,1.1a10.416,10.416,0,0,1-1.193,1.1,10.932,10.932,0,0,1-1.178-.928,32.961,32.961,0,0,0-16.122-7.273,45.766,45.766,0,0,0-9.835,0,33.493,33.493,0,0,0-15.989,7.17l-1.251,1.031-1.134-1.134-1.148-1.134,3.239-3.254c3.033-3.048,3.239-3.283,3.239-3.8a1.417,1.417,0,0,0-.471-1.06,11.638,11.638,0,0,0-5.374-2.93A15.922,15.922,0,0,0,8.874-511.779Zm4.594,2.65a10.463,10.463,0,0,1,3.018,1.384c0,.044-2.724,2.812-6.036,6.125-4.917,4.9-6.066,5.992-6.2,5.816a12.661,12.661,0,0,1-1.237-2.871,8.759,8.759,0,0,1,8.392-10.659A10.727,10.727,0,0,1,13.468-509.129Zm52.856,0a7.877,7.877,0,0,1,3.975,2.341,8.248,8.248,0,0,1,2.37,4.049,11.327,11.327,0,0,1,0,4.108,13.876,13.876,0,0,1-1.251,2.827c-.133.177-1.281-.913-6.2-5.816-3.313-3.313-6.036-6.081-6.036-6.125A9.9,9.9,0,0,1,62-509.114,11.268,11.268,0,0,1,66.324-509.129Zm-29.785,8.171c.044,3.283.059,3.386.383,3.71a1.343,1.343,0,0,0,1.885-.074c.353-.412.353-.442.353-3.71v-3.3l1,.074a30.092,30.092,0,0,1,27.62,27.62l.074,1h-3.3c-3.269,0-3.3,0-3.71.353a1.036,1.036,0,0,0-.412.972,1.036,1.036,0,0,0,.412.972c.412.353.442.353,3.725.353h3.313l-.088,1.06a30.241,30.241,0,0,1-13.943,22.983,30.131,30.131,0,0,1-13.074,4.505c-.824.088-1.531.162-1.561.162s-.059-1.5-.059-3.327v-3.327l-.427-.427a1.152,1.152,0,0,0-1.8,0l-.427.427v3.327c0,1.826-.029,3.327-.059,3.327-.559,0-3.416-.383-4.461-.589a29.865,29.865,0,0,1-15.356-8.245A29.827,29.827,0,0,1,8.4-468.42c-.162-.766-.324-1.826-.383-2.356s-.118-1.237-.162-1.59l-.074-.618h6.67l.427-.427a1.152,1.152,0,0,0,0-1.8l-.427-.427H7.829l.074-.928a37.609,37.609,0,0,1,1.06-5.933,28.905,28.905,0,0,1,7.671-13.015,28.971,28.971,0,0,1,10.512-6.861,33.7,33.7,0,0,1,8.186-1.87c.368-.029.78-.059.913-.074C36.465-504.344,36.495-504.035,36.539-500.958Z" transform="translate(0)"/><path class="a" d="M189.914-332.98a74.45,74.45,0,0,1-7.3,4,5.1,5.1,0,0,0-3.548-1.281,4.267,4.267,0,0,0-1.943.412,4.63,4.63,0,0,0-1.148.677.808.808,0,0,1-.368.28c-.059,0-1.8-.972-3.843-2.149-4.019-2.326-4.358-2.488-4.9-2.356a1.376,1.376,0,0,0-.692,2.12c.147.147,2.017,1.281,4.152,2.518l3.9,2.238-.044,1.222a4.265,4.265,0,0,0,.265,2.032,5.5,5.5,0,0,0,2.5,2.709,3.671,3.671,0,0,0,2.208.412,3.667,3.667,0,0,0,2.179-.4,5.056,5.056,0,0,0,2.4-2.429,4.093,4.093,0,0,0,.486-2.3l.015-1.325,7.023-4.049c3.872-2.238,7.17-4.211,7.347-4.373a1.308,1.308,0,0,0-.015-1.752C197.835-337.559,197.732-337.515,189.914-332.98Zm-9.482,5.742a2.4,2.4,0,0,1-.147,4.137,2.381,2.381,0,0,1-3.121-3.357A2.293,2.293,0,0,1,180.432-327.238Z" transform="translate(-141.317 -149.102)"/></g></svg>