<svg xmlns="http://www.w3.org/2000/svg" width="19.357" height="19.356" viewBox="0 0 19.357 19.356"><defs><style>.a{fill:#369;}</style></defs><g transform="translate(0 511.976)"><path class="a" d="M4.507-511.917a.717.717,0,0,0-.348.423,6.706,6.706,0,0,0-.038.843v.707l-1.217.015a4.454,4.454,0,0,0-1.467.1,2,2,0,0,0-.79.473,2.028,2.028,0,0,0-.552.866L0-508.2v6.93c0,6.268.008,6.956.06,7.142a2.141,2.141,0,0,0,1.448,1.448c.189.053.957.061,8.17.061s7.981-.008,8.17-.061a2.141,2.141,0,0,0,1.448-1.448c.053-.185.06-.873.06-7.142v-6.93l-.095-.287a2.1,2.1,0,0,0-1.342-1.338,4.438,4.438,0,0,0-1.463-.1l-1.217-.015-.011-.783c-.011-.87-.026-.934-.284-1.127-.125-.094-.17-.106-.427-.106s-.3.011-.427.106c-.257.193-.272.253-.284,1.13l-.011.786H5.561l-.011-.786c-.011-.873-.026-.938-.28-1.13A.876.876,0,0,0,4.507-511.917Zm-.386,4.125a6.766,6.766,0,0,0,.038.851.71.71,0,0,0,.873.484.771.771,0,0,0,.484-.473,6.094,6.094,0,0,0,.042-.862v-.707H13.8v.707a6.094,6.094,0,0,0,.042.862.771.771,0,0,0,.484.473.71.71,0,0,0,.873-.484,6.766,6.766,0,0,0,.038-.851v-.707h1.089c1.248,0,1.316.015,1.508.306l.106.163.011,1.467.011,1.467H1.4l.011-1.467.011-1.467.106-.163c.193-.291.261-.306,1.512-.306H4.121Zm13.83,8.718-.011,4.586-.1.155a.752.752,0,0,1-.265.234l-.166.079H1.951l-.166-.079a.752.752,0,0,1-.265-.234l-.1-.155-.011-4.586L1.4-503.66H17.958Z"/><path class="a" d="M91.553-256.007a.676.676,0,0,0-.215.166.712.712,0,0,0,.2,1.1c.155.072.227.079,1.013.079s.858-.008,1.013-.079a.714.714,0,0,0-.019-1.267A9.033,9.033,0,0,0,91.553-256.007Z" transform="translate(-87.715 -246.238)"/><path class="a" d="M219.553-256.007a.677.677,0,0,0-.216.166.712.712,0,0,0,.2,1.1c.155.072.227.079,1.013.079s.858-.008,1.013-.079a.714.714,0,0,0-.019-1.267A9.033,9.033,0,0,0,219.553-256.007Z" transform="translate(-210.876 -246.238)"/><path class="a" d="M347.553-256.007a.677.677,0,0,0-.216.166.712.712,0,0,0,.2,1.1c.155.072.227.079,1.013.079s.858-.008,1.013-.079a.714.714,0,0,0-.019-1.267A9.033,9.033,0,0,0,347.553-256.007Z" transform="translate(-334.037 -246.238)"/><path class="a" d="M91.4-182.815a.719.719,0,0,0-.4.643.856.856,0,0,0,.212.518c.181.163.318.181,1.195.181.737,0,.862-.011.994-.072a.577.577,0,0,0,.34-.355.725.725,0,0,0-.231-.843l-.14-.11-.93-.011A3.108,3.108,0,0,0,91.4-182.815Z" transform="translate(-87.56 -316.667)"/><path class="a" d="M219.4-182.815a.719.719,0,0,0-.4.643.856.856,0,0,0,.212.518c.181.163.318.181,1.195.181.737,0,.862-.011.994-.072a.577.577,0,0,0,.34-.355.725.725,0,0,0-.231-.843l-.14-.11-.93-.011A3.109,3.109,0,0,0,219.4-182.815Z" transform="translate(-210.72 -316.667)"/><path class="a" d="M347.4-182.815a.719.719,0,0,0-.4.643.856.856,0,0,0,.212.518c.181.163.318.181,1.195.181.737,0,.862-.011.994-.072a.577.577,0,0,0,.34-.355.725.725,0,0,0-.231-.843l-.14-.11-.93-.011A3.108,3.108,0,0,0,347.4-182.815Z" transform="translate(-333.881 -316.667)"/><path class="a" d="M91.512-109.928a.577.577,0,0,0-.34.355.724.724,0,0,0,.231.843l.14.11h1.943l.14-.11a.724.724,0,0,0,.231-.843.577.577,0,0,0-.34-.355c-.132-.06-.257-.072-1-.072S91.645-109.989,91.512-109.928Z" transform="translate(-87.675 -386.779)"/><path class="a" d="M219.512-109.928a.577.577,0,0,0-.34.355.724.724,0,0,0,.231.843l.14.11h1.943l.14-.11a.724.724,0,0,0,.231-.843.577.577,0,0,0-.34-.355c-.132-.06-.257-.072-1-.072S219.645-109.989,219.512-109.928Z" transform="translate(-210.836 -386.779)"/><path class="a" d="M347.512-109.928a.577.577,0,0,0-.34.355.724.724,0,0,0,.231.843l.14.11h1.943l.14-.11a.724.724,0,0,0,.231-.843.577.577,0,0,0-.34-.355c-.132-.06-.257-.072-1-.072S347.645-109.989,347.512-109.928Z" transform="translate(-333.996 -386.779)"/></g></svg>