<svg xmlns="http://www.w3.org/2000/svg" width="72.447" height="59.634" viewBox="0 0 72.447 59.634"><defs><style>.a{fill:#fff;}</style></defs><g transform="translate(-17.997 452.638)"><path class="a" d="M51.913-452.541a23.5,23.5,0,0,0-20.959,19.805,31.212,31.212,0,0,0,.243,8.52,24.4,24.4,0,0,0,4.359,9.417l.395.532H32.76c-3.144,0-3.2,0-3.432.334-.2.273-.243.85-.243,3.189v2.855h-5.24c-5.042,0-5.255.015-5.544.3a1.194,1.194,0,0,0-.3.8c0,.44.319.82,2.962,3.448l2.946,2.946-2.962,2.9c-2.567,2.506-2.962,2.946-2.946,3.341a1.57,1.57,0,0,0,.243.8l.228.334H36.816l.228-.334c.2-.273.243-.851.243-3.19v-2.855H71v2.749c0,2.658.076,3.22.516,3.508.213.152,18.2.152,18.408,0a1.647,1.647,0,0,0,.516-1.033,28.486,28.486,0,0,0-2.992-3.281l-2.992-3.007,2.916-2.931c3.114-3.129,3.25-3.357,2.673-4.177l-.228-.334H79.205V-413.8l-.395-.3c-.38-.3-.592-.319-3.448-.319H72.325l.3-.334a24.56,24.56,0,0,0,2.521-4.01,24.269,24.269,0,0,0,2.081-6.394,29.455,29.455,0,0,0,.137-7.381,23.274,23.274,0,0,0-15.932-18.939A24.956,24.956,0,0,0,51.913-452.541Zm5.6,2.506a20.963,20.963,0,0,1,11.756,6.2,20.343,20.343,0,0,1,4.982,8.156,19.492,19.492,0,0,1,1,6.531,20.719,20.719,0,0,1-5.1,13.821l-.9,1.048H65.916l-3.341.015.911-.592a17.173,17.173,0,0,0,5.893-21.962,17.01,17.01,0,0,0-12.5-9.2,22.949,22.949,0,0,0-5.863.091A17.21,17.21,0,0,0,37.271-431.84a23.758,23.758,0,0,0,.289,6.819,17.213,17.213,0,0,0,7.321,10.206l.835.547H39.109l-.638-.7a22.391,22.391,0,0,1-5.209-10.753,26.553,26.553,0,0,1,.015-6.941,22.633,22.633,0,0,1,3.417-8.445,28.563,28.563,0,0,1,5.5-5.5A21.133,21.133,0,0,1,57.517-450.035Zm-.866,6.318a14.966,14.966,0,0,1,12.014,11.725,19.779,19.779,0,0,1,.046,5.361,15.041,15.041,0,0,1-7.883,10.616,14.169,14.169,0,0,1-6.759,1.61A14.7,14.7,0,0,1,40.2-424.292a12.7,12.7,0,0,1-.744-5.468,13.773,13.773,0,0,1,4.268-9.811A14.506,14.506,0,0,1,56.651-443.717Zm20.276,36.892v5.316H31.363v-10.632H76.927Zm-47.964,4.04c.061,3.827-.213,3.554,3.4,3.554h2.643v4.1H21.719l2.415-2.415c2.1-2.1,2.415-2.491,2.415-2.9s-.319-.8-2.415-2.9l-2.415-2.415h7.2Zm55.193-.562c-2.1,2.1-2.415,2.491-2.415,2.9s.319.8,2.415,2.9l2.415,2.415H73.282v-4.253h2.7c3.554,0,3.281.289,3.341-3.508l.046-2.871h7.2Z" transform="translate(0 0)"/><path class="a" d="M233.894-353.269c-1.671,1.671-1.731,1.762-1.64,2.248a1.017,1.017,0,0,0,.942.972c.41.076.577,0,1.109-.471l.623-.562v6.364c0,5.984.015,6.394.273,6.622a1.342,1.342,0,0,0,1.595-.015c.228-.258.258-1.048.258-8.277v-7.989l-.395-.3a1.443,1.443,0,0,0-.714-.319A7.984,7.984,0,0,0,233.894-353.269Z" transform="translate(-181.693 -82.809)"/></g></svg>