<svg xmlns="http://www.w3.org/2000/svg" width="43.726" height="36.05" viewBox="0 0 43.726 36.05"><defs><style>.a,.c{fill:#369;stroke:#369;}.a{stroke-width:0.1px;}.b{fill:#f6f9fe;}.c{stroke-width:0.5px;}</style></defs><g transform="translate(-872.274 -324)"><g transform="translate(872.35 328.36)"><path class="a" d="M11.063-511.827a6.785,6.785,0,0,1,5.025,4.431,6.265,6.265,0,0,1,.352,2.243A6.317,6.317,0,0,1,15.692-502c-.13.253-1.316,2.231-2.639,4.388l-2.4,3.924.26.247a1.957,1.957,0,0,1,.124,2.67,2.021,2.021,0,0,1-.544.383,1.424,1.424,0,0,1-.847.192,1.731,1.731,0,0,1-1.619-.9l-.192-.334H5.544c-1.267,0-2.46.025-2.651.062a1.747,1.747,0,0,0-1.069.525,1.471,1.471,0,0,0-.494,1.267,1.471,1.471,0,0,0,.494,1.267,1.747,1.747,0,0,0,1.069.525c.192.037,2.107.062,4.252.062,3.721,0,3.924.006,4.3.124a3.024,3.024,0,0,1,2.151,2.967,3.024,3.024,0,0,1-2.151,2.967c-.377.117-.581.124-3.906.124h-3.5l-.167-.161a.7.7,0,0,1,0-.915l.167-.161H7.194c1.737,0,3.319-.025,3.51-.062a1.747,1.747,0,0,0,1.069-.525,1.6,1.6,0,0,0,.513-1.156,1.751,1.751,0,0,0-1.576-1.9c-.2-.037-2.089-.062-4.258-.062-3.721,0-3.924-.006-4.3-.124A3.024,3.024,0,0,1,0-489.578a3.022,3.022,0,0,1,2.157-2.967c.365-.117.581-.124,3.041-.124H7.849l.13-.266a2.367,2.367,0,0,1,.389-.507l.26-.247-2.4-3.924c-2.509-4.1-2.818-4.635-3.053-5.34a7.7,7.7,0,0,1-.241-3.479,6.813,6.813,0,0,1,5.426-5.426A8.793,8.793,0,0,1,11.063-511.827Zm-2.4,1.242a5.642,5.642,0,0,0-4.159,3.424,5.649,5.649,0,0,0,.031,4.11c.142.352,5.037,8.461,5.1,8.461.087,0,4.981-8.152,5.142-8.56a5.217,5.217,0,0,0,.358-2,5.312,5.312,0,0,0-1.644-3.924A5.452,5.452,0,0,0,8.665-510.585Zm.575,18.133a.564.564,0,0,0,.414.958.513.513,0,0,0,.544-.556.513.513,0,0,0-.556-.556A.478.478,0,0,0,9.239-492.452Z" transform="translate(15.21 511.948)"/><path class="a" d="M64.03-451.848a3.038,3.038,0,0,1,2.151,2.973,3.008,3.008,0,0,1-3.09,3.09,3.008,3.008,0,0,1-3.09-3.09,3.022,3.022,0,0,1,2.157-2.966A3.768,3.768,0,0,1,64.03-451.848Zm-1.582,1.279a2.162,2.162,0,0,0-1,.921,1.6,1.6,0,0,0-.124.773,1.471,1.471,0,0,0,.494,1.267,1.471,1.471,0,0,0,1.267.494,1.471,1.471,0,0,0,1.267-.494,1.6,1.6,0,0,0,.513-1.156,1.728,1.728,0,0,0-1.193-1.823A2.38,2.38,0,0,0,62.447-450.568Z" transform="translate(-38.239 455.67)"/><path class="a" d="M284.227-345.827a6.785,6.785,0,0,1,5.025,4.431,6.265,6.265,0,0,1,.352,2.243,6.394,6.394,0,0,1-.791,3.232c-.13.247-1.3,2.107-2.6,4.141s-2.361,3.714-2.361,3.745.087.105.185.185a1.728,1.728,0,0,1,.377.47l.192.34h5.655l.167.161a.524.524,0,0,1,.161.457.524.524,0,0,1-.161.457l-.167.161H284.61l-.192.334a1.731,1.731,0,0,1-1.619.9,1.424,1.424,0,0,1-.847-.192,1.714,1.714,0,0,1-1-1.669,1.455,1.455,0,0,1,.192-.853,1.948,1.948,0,0,1,.4-.55.758.758,0,0,0,.21-.21c0-.019-1.088-1.743-2.416-3.832-2.478-3.881-2.75-4.345-3-5.08a7.7,7.7,0,0,1-.241-3.479,6.813,6.813,0,0,1,5.426-5.426A8.792,8.792,0,0,1,284.227-345.827Zm-2.4,1.242a5.642,5.642,0,0,0-4.159,3.424,5.2,5.2,0,0,0-.365,2.033,5.522,5.522,0,0,0,.457,2.219c.179.4,4.969,7.954,5.043,7.954.025,0,1.143-1.718,2.478-3.819,2.522-3.955,2.732-4.332,2.929-5.259a7.109,7.109,0,0,0,0-2.231,5.557,5.557,0,0,0-1.551-2.812A5.452,5.452,0,0,0,281.829-344.585Zm.575,17.762a.564.564,0,0,0,.414.958.513.513,0,0,0,.544-.556.513.513,0,0,0-.556-.556A.478.478,0,0,0,282.4-326.823Z" transform="translate(-276 356.207)"/><path class="a" d="M356.03-285.848a3.038,3.038,0,0,1,2.151,2.973,3.008,3.008,0,0,1-3.09,3.09,3.008,3.008,0,0,1-3.09-3.09,3.022,3.022,0,0,1,2.157-2.966A3.768,3.768,0,0,1,356.03-285.848Zm-1.582,1.279a2.162,2.162,0,0,0-.995.921,1.6,1.6,0,0,0-.124.773,1.471,1.471,0,0,0,.494,1.267,1.471,1.471,0,0,0,1.267.494,1.471,1.471,0,0,0,1.267-.494,1.6,1.6,0,0,0,.513-1.156,1.728,1.728,0,0,0-1.193-1.823A2.379,2.379,0,0,0,354.447-284.568Z" transform="translate(-348.285 299.929)"/><path class="a" d="M232.075-39.839a.524.524,0,0,1,.161.457.55.55,0,0,1-.618.618.55.55,0,0,1-.618-.618.524.524,0,0,1,.161-.457.524.524,0,0,1,.457-.161A.524.524,0,0,1,232.075-39.839Z" transform="translate(-214.863 69.168)"/></g><circle class="b" cx="14" cy="14" r="14" transform="translate(888 324)"/><g transform="translate(878.905 378.492)"><path class="c" d="M184.782-467.7a3.833,3.833,0,0,0-1.069.458c-.4.263-1.68,1.294-2.358,1.9-.926.835-.921.831-1.2.8-.148-.014-1.5-.5-3.485-1.241-1.785-.668-3.394-1.265-3.581-1.322a1.673,1.673,0,0,0-1.031-.033,2.907,2.907,0,0,0-1.236,1.384.866.866,0,0,0,.267.816c.115.115,1.074.807,2.129,1.537a15.048,15.048,0,0,1,2.841,2.115l.205.248-.587.559c-1.351,1.3-2.234,2.134-2.277,2.148a4.782,4.782,0,0,1-.773-.334c-.664-.315-.754-.348-1.017-.344a1.057,1.057,0,0,0-.439.081,3.044,3.044,0,0,0-.874.874c-.167.339-.11.511.353,1.084.215.267.582.735.816,1.036s.831,1.06,1.327,1.68c.788.988.931,1.146,1.146,1.251.764.387,1.6-.243,1.647-1.237a3.392,3.392,0,0,0-.153-1l-.172-.668.181-.153c.148-.129,2.2-1.723,2.736-2.129l.177-.134.229.4c.143.253.6,1.346,1.241,2.993.664,1.695,1.06,2.654,1.151,2.769.368.454.807.449,1.542-.024a1.627,1.627,0,0,0,.711-.783c.234-.5.215-.716-.368-4.96-.4-2.841-.516-3.819-.482-3.919.053-.138.053-.138,1.595-1.442a7.721,7.721,0,0,0,2.129-2.2c.606-1.036.559-1.8-.124-2.153A2.16,2.16,0,0,0,184.782-467.7Zm.912.816c.181.119.148.329-.129.874a4.832,4.832,0,0,1-.492.783c-.143.177-.831.788-1.585,1.427-1.652,1.384-1.709,1.447-1.8,1.766a1.736,1.736,0,0,0-.076.349c0,.057.239,1.819.525,3.919s.525,3.915.525,4.034a1.306,1.306,0,0,1-.783,1.1c-.3.134-.353.119-.463-.138-.057-.124-.463-1.2-.907-2.4s-.917-2.387-1.046-2.65a10.8,10.8,0,0,0-.831-1.432l-.105-.134-.477.349c-.864.64-3.385,2.588-3.466,2.683-.124.138-.105.358.081,1.1a5.867,5.867,0,0,1,.167.883c0,.4-.339.793-.611.707-.072-.024-2.072-2.535-3.1-3.891l-.2-.267.191-.2a1.8,1.8,0,0,1,.348-.282l.148-.076.845.406a6.106,6.106,0,0,0,.979.411.568.568,0,0,0,.263-.086c.119-.076,3.289-3.065,3.418-3.218.048-.062.014-.134-.191-.449-.439-.668-.759-.931-3.032-2.5-1.155-.8-2.163-1.494-2.234-1.556-.129-.1-.134-.115-.076-.258a2.433,2.433,0,0,1,.406-.482c.272-.267.368-.334.482-.334a27.513,27.513,0,0,1,4.01,1.423c1.68.63,3.184,1.184,3.337,1.227a1.34,1.34,0,0,0,1.046-.091,6.315,6.315,0,0,0,.678-.559c.563-.516,1.828-1.58,2.268-1.91a2.953,2.953,0,0,1,1.108-.568A.922.922,0,0,1,185.694-466.884Z" transform="translate(-156.297 422.333)"/></g></g></svg>