<svg xmlns="http://www.w3.org/2000/svg" width="35" height="34" viewBox="0 0 35 34"><defs><style>.a{fill:#245489;}.b{fill:#fff;}</style></defs><g transform="translate(-550 -5953)"><rect class="a" width="35" height="34" rx="17" transform="translate(550 5953)"/><g transform="translate(555.792 5957.914)"><path class="b" d="M16.416,0H6.965A6.973,6.973,0,0,0,0,6.965v9.45a6.973,6.973,0,0,0,6.965,6.965h9.45a6.973,6.973,0,0,0,6.965-6.965V6.965A6.973,6.973,0,0,0,16.416,0Zm4.613,16.416a4.613,4.613,0,0,1-4.613,4.613H6.965a4.613,4.613,0,0,1-4.613-4.613V6.965A4.613,4.613,0,0,1,6.965,2.352h9.45a4.613,4.613,0,0,1,4.613,4.613v9.45Z"/><path class="b" d="M138.385,133a5.385,5.385,0,1,0,5.385,5.385A5.391,5.391,0,0,0,138.385,133Zm0,8.676a3.29,3.29,0,1,1,3.29-3.29A3.29,3.29,0,0,1,138.385,141.676Z" transform="translate(-126.694 -126.694)"/><circle class="b" cx="1.619" cy="1.619" r="1.619" transform="translate(16.03 4.169)"/></g></g></svg>