<svg xmlns="http://www.w3.org/2000/svg" width="39.697" height="36.812" viewBox="0 0 39.697 36.812"><defs><style>.a{fill:#369;}.b{fill:#fff;stroke:#369;}</style></defs><g transform="translate(-186.004 -4614.347)"><g transform="translate(186.004 4615.029)"><g transform="translate(0 0.813)"><path class="a" d="M2.466-511.537a2.485,2.485,0,0,0-1.823,1.395c-.186.414-.2.5-.249,1.954-.028.836-.076,3.225-.1,5.317a51.442,51.442,0,0,0,.2,7.478,7.454,7.454,0,0,0,1.554,2.672c.3.325,14.37,13.555,16.51,15.523a2.851,2.851,0,0,0,2.4.932,2.734,2.734,0,0,0,1.9-.822c.449-.421,11.034-12.188,11.5-12.768a6.374,6.374,0,0,0,1.264-3.453,2.9,2.9,0,0,0-.283-1.167c-.138-.228-18.022-16.407-18.292-16.545a8.028,8.028,0,0,0-2.3-.421c-.891-.09-2.237-.117-6.539-.131C5.221-511.585,2.639-511.571,2.466-511.537Zm5.441,4.488a2.673,2.673,0,0,1,1.25,1.333,2.635,2.635,0,0,1,0,1.754,2.672,2.672,0,0,1-1.388,1.388A2.451,2.451,0,0,1,4.482-504.5a2.464,2.464,0,0,1,1.36-2.527A2.452,2.452,0,0,1,7.907-507.049Z" transform="translate(-0.283 511.577)"/></g><g transform="translate(30.359 0) rotate(65)"><path class="b" d="M9.768.05a1.355,1.355,0,0,0-.559.391,5.681,5.681,0,0,0-.595,1.289,9.721,9.721,0,0,0-.1,2.375L8.5,6.162l-4,4.012C1.585,13.087.443,14.257.323,14.44A2.26,2.26,0,0,0,0,15.989a4.971,4.971,0,0,0,.04.854.5.5,0,0,0,.435.188c.108-.012,1.122-.643,4.147-2.583,2.2-1.413,4.012-2.559,4.024-2.551s.044.367.076.794.132,1.525.224,2.443.156,1.677.148,1.685-.679.455-1.5.994S6.075,18.839,6.032,18.9c-.076.1-.084.16-.084.663,0,.735.068.87.431.87.088,0,.97-.18,1.964-.4s1.84-.4,1.888-.4.9.18,1.884.4,1.864.4,1.948.4c.359,0,.427-.136.427-.878v-.559l-.128-.136c-.072-.076-.77-.555-1.549-1.066s-1.433-.938-1.449-.958.036-.778.128-1.7.192-2.02.224-2.447.068-.782.076-.794,1.82,1.138,4.024,2.551c3.022,1.936,4.04,2.571,4.147,2.583a.5.5,0,0,0,.435-.188,4.971,4.971,0,0,0,.04-.854,2.26,2.26,0,0,0-.323-1.549c-.12-.184-1.261-1.353-4.171-4.267l-4-4.012-.012-2.056c-.016-2.363-.012-2.315-.407-3.138A1.608,1.608,0,0,0,10.81.11,1.816,1.816,0,0,0,9.768.05Z" transform="translate(0 0)"/></g></g></g></svg>