<svg xmlns="http://www.w3.org/2000/svg" width="34" height="34" viewBox="0 0 34 34"><defs><style>.a{fill:#245489;}.b{fill:#fff;}</style></defs><g transform="translate(-639 -5953)"><rect class="a" width="34" height="34" rx="17" transform="translate(639 5953)"/><g transform="translate(646.324 5957.854)"><path class="b" d="M50.67,48.388V41.377c0-3.445-.742-6.077-4.761-6.077a4.155,4.155,0,0,0-3.757,2.058H42.1V35.611H38.3V48.388h3.972V42.047c0-1.675.311-3.278,2.369-3.278,2.034,0,2.058,1.89,2.058,3.374v6.221H50.67Z" transform="translate(-31.529 -29.246)"/><path class="b" d="M11.3,36.6h3.972V49.377H11.3Z" transform="translate(-10.989 -30.235)"/><path class="b" d="M12.3,10a2.309,2.309,0,1,0,2.3,2.3A2.3,2.3,0,0,0,12.3,10Z" transform="translate(-10 -10)"/></g></g></svg>