<svg xmlns="http://www.w3.org/2000/svg" width="25.717" height="16.547" viewBox="0 0 25.717 16.547"><defs><style>.a{fill:#369;stroke:#369;stroke-width:0.5px;}</style></defs><g transform="translate(0.562 418.958)"><path class="a" d="M11.641-418.651a3.751,3.751,0,0,0-2.76,2.263,3.7,3.7,0,0,0,.285,3.277,3.974,3.974,0,0,0,.915,1.009c.123.084.2.167.177.187a1.406,1.406,0,0,1-.285.128,7.677,7.677,0,0,0-1.486.8,3.334,3.334,0,0,1-.4.261.913.913,0,0,1-.207-.138,5.749,5.749,0,0,0-1.112-.654l-.271-.113.3-.3a2.851,2.851,0,0,0,.831-2.44,2.853,2.853,0,0,0-1.958-2.371,3.524,3.524,0,0,0-1.8,0,2.976,2.976,0,0,0-1.855,1.815,2.252,2.252,0,0,0-.113.954,2.066,2.066,0,0,0,.143,1.009,2.954,2.954,0,0,0,.738,1.1l.261.236-.276.108a4.948,4.948,0,0,0-1.56,1.063A4.678,4.678,0,0,0-.27-407.153l-.03.654H5.791l-.015.733a5.9,5.9,0,0,0,.039,1A2.737,2.737,0,0,0,7.9-402.715c.2.034,1.688.054,4.428.054,4.541,0,4.457,0,5.053-.3a3.123,3.123,0,0,0,1.166-1.181,2.964,2.964,0,0,0,.246-1.609l-.015-.748h6.125v-.482a4.922,4.922,0,0,0-.748-2.568,5.489,5.489,0,0,0-2.357-2l-.221-.079.33-.33a2.777,2.777,0,0,0,.817-2.165,2.791,2.791,0,0,0-1.319-2.312,2.577,2.577,0,0,0-1.4-.428,2.73,2.73,0,0,0-2.214.841,2.73,2.73,0,0,0-.827,2.047,2.729,2.729,0,0,0,.807,1.993l.325.34-.472.226a5.588,5.588,0,0,0-.8.477l-.33.251-.408-.3a7.027,7.027,0,0,0-1.5-.8,1.562,1.562,0,0,1-.285-.128c-.025-.02.054-.1.177-.187a3.189,3.189,0,0,0,.482-.443,3.654,3.654,0,0,0,.964-2.711,3.647,3.647,0,0,0-2.617-3.3A4.922,4.922,0,0,0,11.641-418.651Zm1.186.861a2.811,2.811,0,0,1,1.427.782,2.615,2.615,0,0,1,.827,1.973,2.6,2.6,0,0,1-.836,1.973,2.72,2.72,0,0,1-4.01-.074,2.493,2.493,0,0,1-.679-1.215,2.581,2.581,0,0,1,0-1.368,2.847,2.847,0,0,1,2.337-2.116A2.712,2.712,0,0,1,12.826-417.79Zm-7.547,1.825a1.845,1.845,0,0,1,.9.531,2,2,0,0,1,.01,2.863A2.029,2.029,0,0,1,2.716-414,2.044,2.044,0,0,1,5.279-415.964Zm15.158.02a2.047,2.047,0,0,1,1.4,2.411,2.038,2.038,0,0,1-3.454.945,1.917,1.917,0,0,1-.561-1.417A2.032,2.032,0,0,1,20.438-415.945Zm-7.464,4.63a5.619,5.619,0,0,1,3.257,1.584,5.627,5.627,0,0,1,1.727,4.266,1.672,1.672,0,0,1-.177.9,2.026,2.026,0,0,1-.984.93l-.28.113-4.049.015c-2.622.01-4.148,0-4.325-.039a1.8,1.8,0,0,1-1.363-1.033c-.153-.32-.153-.325-.148-1.132a4.566,4.566,0,0,1,.394-2.106A5.7,5.7,0,0,1,12.974-411.315Zm-7.267.34a4.41,4.41,0,0,1,1.437.645,2.339,2.339,0,0,1,.3.226,2.113,2.113,0,0,1-.216.276,6.917,6.917,0,0,0-1.166,2.135l-.113.359H.546l.03-.187a4.212,4.212,0,0,1,4.157-3.547A3.78,3.78,0,0,1,5.707-410.975ZM20.713-411a4.123,4.123,0,0,1,2.18,1.235A4.237,4.237,0,0,1,24.01-407.6l.044.261H18.612l-.079-.285a7.147,7.147,0,0,0-1.161-2.16l-.241-.3.153-.128A4.487,4.487,0,0,1,18.962-411,5.5,5.5,0,0,1,20.713-411Z" transform="translate(0)"/></g></svg>