<svg xmlns="http://www.w3.org/2000/svg" width="45.642" height="45.642" viewBox="0 0 45.642 45.642"><defs><style>.a{fill:#369;}.b{fill:#fff;}</style></defs><g transform="translate(-155 -868)"><path class="a" d="M16.137,0h0A16.137,16.137,0,0,1,32.274,16.137V32.274a0,0,0,0,1,0,0H16.137A16.137,16.137,0,0,1,0,16.137v0A16.137,16.137,0,0,1,16.137,0Z" transform="translate(177.821 868) rotate(45)"/><g transform="translate(170 1393.859)"><path class="b" d="M7.668-511.819a1.064,1.064,0,0,0-.439.307,4.459,4.459,0,0,0-.467,1.012,7.631,7.631,0,0,0-.081,1.865l-.009,1.614-3.143,3.149c-2.284,2.288-3.181,3.206-3.275,3.35A1.775,1.775,0,0,0,0-499.306a3.9,3.9,0,0,0,.031.671.389.389,0,0,0,.342.147c.085-.009.881-.5,3.256-2.028,1.73-1.109,3.149-2.009,3.159-2s.034.288.06.624.1,1.2.175,1.918.122,1.316.116,1.322-.533.357-1.175.78-1.194.805-1.228.852c-.06.075-.066.125-.066.52,0,.577.053.683.338.683.069,0,.761-.141,1.542-.313s1.445-.313,1.482-.313.705.141,1.479.313,1.463.313,1.529.313c.282,0,.335-.107.335-.689v-.439l-.1-.107c-.056-.06-.6-.436-1.216-.837s-1.125-.736-1.138-.752.028-.611.1-1.332.15-1.586.175-1.921.053-.614.06-.624,1.429.893,3.159,2c2.372,1.52,3.171,2.018,3.256,2.028a.389.389,0,0,0,.342-.147,3.9,3.9,0,0,0,.031-.671,1.775,1.775,0,0,0-.254-1.216c-.094-.144-.99-1.062-3.275-3.35l-3.143-3.149-.009-1.614c-.013-1.855-.009-1.818-.32-2.463a1.262,1.262,0,0,0-.558-.674A1.426,1.426,0,0,0,7.668-511.819Z"/></g></g></svg>