<svg xmlns="http://www.w3.org/2000/svg" width="34" height="34" viewBox="0 0 34 34"><defs><style>.a{fill:#245489;}.b{fill:#fff;}</style></defs><g transform="translate(-506 -5953)"><rect class="a" width="34" height="34" rx="17" transform="translate(506 5953)"/><path class="b" d="M7.319,14.877A13.342,13.342,0,0,0,20.752,1.445q0-.306-.013-.61A9.608,9.608,0,0,0,23.093-1.61a9.419,9.419,0,0,1-2.711.743,4.739,4.739,0,0,0,2.076-2.611,9.469,9.469,0,0,1-3,1.146A4.723,4.723,0,0,0,11.292.9a4.717,4.717,0,0,0,.122,1.077A13.4,13.4,0,0,1,1.683-2.96,4.71,4.71,0,0,0,1.044-.587a4.717,4.717,0,0,0,2.1,3.93,4.684,4.684,0,0,1-2.138-.59c0,.02,0,.039,0,.06A4.723,4.723,0,0,0,4.794,7.441a4.739,4.739,0,0,1-1.245.166,4.692,4.692,0,0,1-.887-.085A4.726,4.726,0,0,0,7.072,10.8a9.472,9.472,0,0,1-5.864,2.021,9.608,9.608,0,0,1-1.126-.065,13.365,13.365,0,0,0,7.237,2.121" transform="translate(511.713 5964.381)"/></g></svg>