<svg xmlns="http://www.w3.org/2000/svg" width="34" height="34" viewBox="0 0 34 34"><defs><style>.a{fill:#245489;}.b{fill:#fff;}</style></defs><g transform="translate(-461 -5953)"><rect class="a" width="34" height="34" rx="17" transform="translate(461 5953)"/><g transform="translate(470.586 5957.364)"><path class="b" d="M31.981,23.56H29.027c-.478,0-.627-.179-.627-.627V19.322c0-.478.179-.627.627-.627h2.955V16.069a6.629,6.629,0,0,1,.806-3.372,4.952,4.952,0,0,1,2.656-2.208,6.64,6.64,0,0,1,2.3-.388h2.925c.418,0,.6.179.6.6v3.4c0,.418-.179.6-.6.6-.806,0-1.612,0-2.417.03a1.078,1.078,0,0,0-1.224,1.224c-.03.9,0,1.761,0,2.686h3.462c.478,0,.657.179.657.657V22.9c0,.478-.149.627-.657.627H37.025v9.729c0,.507-.149.686-.686.686h-3.73c-.448,0-.627-.179-.627-.627Z" transform="translate(-28.4 -10.1)"/></g></g></svg>