<svg xmlns="http://www.w3.org/2000/svg" width="36" height="36" viewBox="0 0 36 36"><defs><style>.a{fill:#369;}.b{fill:#fff;}</style></defs><g transform="translate(-532 -4606)"><circle class="a" cx="18" cy="18" r="18" transform="translate(532 4606)"/><g transform="translate(539.552 5124.468)"><path class="b" d="M9.987-511.807a1.385,1.385,0,0,0-.571.4,5.808,5.808,0,0,0-.608,1.318,9.939,9.939,0,0,0-.106,2.428l-.012,2.1-4.093,4.1C1.62-498.478.453-497.282.331-497.094A2.311,2.311,0,0,0,0-495.511a5.082,5.082,0,0,0,.041.873.506.506,0,0,0,.445.192c.11-.012,1.147-.657,4.24-2.641,2.253-1.445,4.1-2.616,4.114-2.608s.045.375.078.812.135,1.559.229,2.5.159,1.714.151,1.722-.694.465-1.53,1.016-1.555,1.049-1.6,1.11c-.078.1-.086.163-.086.677,0,.751.069.89.441.89.09,0,.992-.184,2.008-.408s1.881-.408,1.93-.408.918.184,1.926.408,1.906.408,1.992.408c.367,0,.437-.139.437-.9v-.571l-.131-.139c-.073-.078-.788-.567-1.584-1.09s-1.465-.959-1.481-.979.037-.8.131-1.735.2-2.065.229-2.5.069-.8.078-.812,1.861,1.163,4.114,2.608c3.09,1.979,4.13,2.628,4.24,2.641a.506.506,0,0,0,.445-.192,5.082,5.082,0,0,0,.041-.873,2.311,2.311,0,0,0-.331-1.584c-.122-.188-1.29-1.384-4.265-4.363l-4.093-4.1-.012-2.1c-.016-2.416-.012-2.367-.416-3.208a1.644,1.644,0,0,0-.726-.877A1.857,1.857,0,0,0,9.987-511.807Z"/></g><rect class="b" width="2" height="37" transform="translate(560.985 4609.454) rotate(39)"/></g></svg>