<svg xmlns="http://www.w3.org/2000/svg" width="60.671" height="52.236" viewBox="0 0 60.671 52.236"><defs><style>.a,.b{fill:#369;}.b{stroke:#369;stroke-width:0.5px;}</style></defs><g transform="translate(-744.057 -26.764)"><g transform="translate(745.035 59.392) rotate(3)"><path class="a" d="M17.505.058c-.05.033-.444.416-.877.854L15.84,1.7l-2.56-.653C10.408.317,10.265.292,9.821.431a2.063,2.063,0,0,0-.408.182C9.2.752.5,9.584.292,9.865A1.57,1.57,0,0,0,0,10.942a1.145,1.145,0,0,0,.143.628c.125.259.283.423,3.384,3.575,3.717,3.78,3.4,3.5,4.075,3.528a1.467,1.467,0,0,0,1-.266c.247-.164,8.97-9.081,9.124-9.322a1.76,1.76,0,0,0,.243-.908,22.961,22.961,0,0,0-.659-2.959l-.655-2.682.777-.8c.43-.441.806-.843.838-.894a.741.741,0,0,0-.011-.6A.5.5,0,0,0,17.792,0,.564.564,0,0,0,17.505.058ZM12.721,2.08l2.213.558-.627.639-.627.635-.172-.055a1.61,1.61,0,0,0-1.876.675,1.584,1.584,0,0,0-.243,1,1.191,1.191,0,0,0,.143.6,1.594,1.594,0,0,0,.77.792,1.633,1.633,0,0,0,1.579-.1,1.671,1.671,0,0,0,.662-1.912l-.054-.175L15.11,4.1c.34-.347.623-.628.627-.624.032.033,1.124,4.63,1.124,4.725a.559.559,0,0,1-.05.219c-.029.055-2.048,2.131-4.487,4.612L7.891,17.549H7.719A.692.692,0,0,1,7.45,17.5c-.118-.066-6.249-6.319-6.306-6.432a.742.742,0,0,1-.039-.255v-.175l4.415-4.5C7.945,3.659,9.982,1.6,10.039,1.562a.408.408,0,0,1,.286-.055C10.426,1.514,11.5,1.773,12.721,2.08Zm.555,2.915a.487.487,0,0,1,.229.416.5.5,0,0,1-.942.274C12.3,5.232,12.861,4.685,13.276,4.995Z" transform="translate(0)"/><path class="a" d="M1.219.043a1.635,1.635,0,0,0-1.2,1.339A1.668,1.668,0,0,0,.9,3.13,1.617,1.617,0,0,0,3.238,1.539a1.987,1.987,0,0,0-.1-.5A1.758,1.758,0,0,0,2.211.094,1.915,1.915,0,0,0,1.219.043ZM1.831,1.17a.529.529,0,0,1-.133,1,.522.522,0,0,1-.523-.3.408.408,0,0,1-.007-.449A.5.5,0,0,1,1.831,1.17Z" transform="translate(6.056 6.105)"/><path class="a" d="M3.781.383C1.958.591.433.77.39.781a.64.64,0,0,0-.372.394.574.574,0,0,0,.365.682,32.754,32.754,0,0,0,3.549-.347c1.876-.212,3.477-.394,3.552-.4A.538.538,0,0,0,7.766.945a.375.375,0,0,0,.158-.35c.025-.39-.19-.6-.6-.595C7.2,0,5.6.175,3.781.383Z" transform="translate(4.092 9.526)"/><path class="a" d="M1.374.019A1.643,1.643,0,0,0,.447.508a1.687,1.687,0,0,0,.48,2.649,1.065,1.065,0,0,0,.68.124A1.365,1.365,0,0,0,2.234,3.2a1.7,1.7,0,0,0,.9-.919A2.079,2.079,0,0,0,3.183,1.2,1.632,1.632,0,0,0,1.951.034L1.7,0A2.439,2.439,0,0,0,1.374.019ZM1.9,1.212a.566.566,0,0,1,.226.449.493.493,0,0,1-.5.507.514.514,0,0,1-.165-1A.539.539,0,0,1,1.9,1.212Z" transform="translate(6.821 11.513)"/></g><g transform="translate(758.894 26.764)"><path class="a" d="M198.708-467.648a7.5,7.5,0,0,0-2.091.9c-.784.513-3.286,2.53-4.612,3.725-1.811,1.634-1.8,1.624-2.353,1.568-.289-.028-2.931-.971-6.815-2.427-3.492-1.307-6.638-2.474-7-2.586a3.272,3.272,0,0,0-2.017-.065,5.685,5.685,0,0,0-2.418,2.707,1.694,1.694,0,0,0,.523,1.6c.224.224,2.1,1.578,4.164,3.006,4.481,3.081,5.041,3.5,5.555,4.136l.4.485-1.148,1.092c-2.642,2.549-4.369,4.173-4.453,4.2a9.354,9.354,0,0,1-1.512-.653c-1.3-.616-1.475-.681-1.988-.672a2.067,2.067,0,0,0-.859.159,5.954,5.954,0,0,0-1.708,1.708c-.327.663-.215,1,.691,2.119.42.523,1.139,1.438,1.6,2.026s1.624,2.073,2.6,3.286c1.54,1.932,1.82,2.241,2.241,2.446,1.494.756,3.127-.476,3.221-2.418a6.632,6.632,0,0,0-.3-1.961l-.336-1.307.355-.3c.289-.252,4.3-3.37,5.349-4.164l.345-.261.448.775c.28.495,1.167,2.633,2.427,5.853,1.3,3.314,2.073,5.191,2.25,5.415.719.887,1.578.878,3.015-.047a3.182,3.182,0,0,0,1.391-1.531c.457-.98.42-1.4-.719-9.7-.775-5.555-1.008-7.469-.943-7.665.1-.271.1-.271,3.118-2.819,2.819-2.381,3.38-2.95,4.164-4.294,1.186-2.026,1.092-3.51-.243-4.21A4.222,4.222,0,0,0,198.708-467.648Zm1.783,1.6c.355.233.289.644-.252,1.708a9.45,9.45,0,0,1-.962,1.531c-.28.345-1.624,1.54-3.1,2.791-3.23,2.707-3.342,2.829-3.529,3.454a3.4,3.4,0,0,0-.149.681c0,.112.467,3.557,1.027,7.665s1.027,7.655,1.027,7.889a2.554,2.554,0,0,1-1.531,2.156c-.588.261-.691.233-.906-.271-.112-.243-.906-2.353-1.774-4.687s-1.792-4.668-2.045-5.181a21.129,21.129,0,0,0-1.624-2.8l-.205-.261-.934.681c-1.69,1.251-6.619,5.06-6.778,5.247-.243.271-.205.7.159,2.157a11.475,11.475,0,0,1,.327,1.727c0,.775-.663,1.55-1.195,1.382-.14-.047-4.052-4.957-6.059-7.609l-.392-.523.373-.383a3.517,3.517,0,0,1,.681-.551l.289-.149,1.652.794a11.935,11.935,0,0,0,1.914.8,1.111,1.111,0,0,0,.513-.168c.233-.149,6.432-5.993,6.684-6.292.093-.121.028-.261-.373-.878-.859-1.307-1.484-1.82-5.928-4.883-2.259-1.559-4.229-2.922-4.369-3.043-.252-.2-.261-.224-.149-.5a4.753,4.753,0,0,1,.794-.943c.532-.523.719-.654.943-.654.4,0,1.018.224,7.842,2.782,3.286,1.232,6.227,2.315,6.526,2.4a2.621,2.621,0,0,0,2.045-.177,12.358,12.358,0,0,0,1.326-1.092c1.1-1.008,3.576-3.09,4.434-3.734a5.775,5.775,0,0,1,2.166-1.111A1.8,1.8,0,0,1,200.491-466.051Z" transform="translate(-156.278 467.756)"/><path class="a" d="M75.385-227.576c-.093.056-1.914,1.419-4.061,3.034a39.755,39.755,0,0,0-4.024,3.221.607.607,0,0,0,.327.887.556.556,0,0,0,.607-.037c.327-.168,7.534-5.573,7.9-5.938a.729.729,0,0,0,.149-.971A.787.787,0,0,0,75.385-227.576Z" transform="translate(-62.904 250.062)"/><path class="b" d="M5.819-195.923C.246-191.738.17-191.676.151-191.451a.842.842,0,0,0,.044.356.5.5,0,0,0,.591.125c.153-.081,10.968-8.174,11.222-8.393a.486.486,0,0,0,.013-.669C11.7-200.351,11.9-200.482,5.819-195.923Z" transform="translate(4.521 224.407)"/><path class="a" d="M100.625-166.58c-2.717,2.063-9.541,7.338-9.672,7.478a.743.743,0,0,0-.131.784.655.655,0,0,0,.784.364c.177-.047,9.42-7.039,10.176-7.7.448-.383.429-.915-.037-1.167C101.4-167,101.092-166.935,100.625-166.58Z" transform="translate(-84.26 195.003)"/><path class="a" d="M32.371-150a3.689,3.689,0,0,0-1.046.99.735.735,0,0,0,.224.784c.411.215.7.1,1.708-.654l1-.747v-.411c0-.457-.121-.6-.579-.672C33.4-150.755,33.268-150.681,32.371-150Z" transform="translate(-30.337 180.317)"/></g></g></svg>