<svg xmlns="http://www.w3.org/2000/svg" width="48.161" height="44.138" viewBox="0 0 48.161 44.138"><defs><style>.a{fill:#369;}</style></defs><g transform="translate(0.007 490.64)"><path class="a" d="M11.168-490.58a8.131,8.131,0,0,0-4.628,2.248,8.489,8.489,0,0,0-2.192,8.861l.31.931-.47.179c-.263.094-1.11.4-1.881.677-1.561.555-1.891.743-2.135,1.213-.169.31-.179.884-.179,14.326,0,15.586-.047,14.382.64,14.909a1.414,1.414,0,0,0,.9.282c.546.038.809-.047,5.71-1.815l5.136-1.844,5.54,1.994c3.048,1.091,5.691,2.032,5.869,2.088.3.085.546.019,2.634-.734,2.549-.912,2.775-1.007,2.859-1.223a.739.739,0,0,0-.63-1.082,13.473,13.473,0,0,0-2.022.611c-.95.339-1.74.611-1.759.611s-.047-6.17-.047-13.714v-13.7l2.972-1.063c1.637-.593,2.991-1.054,3.01-1.035a2.159,2.159,0,0,1-.273.9,2.729,2.729,0,0,1-.658.4A2.953,2.953,0,0,0,28.024-474c0,1.138.621,1.778,1.975,2.032.7.141,1.27.4,1.354.621a4.739,4.739,0,0,1-.4,1.3,7.173,7.173,0,0,0-.743,3.424,3.1,3.1,0,0,0,.32,1.533,4.4,4.4,0,0,0,4,2.352h.461v10.789l-1.8.64a17.961,17.961,0,0,0-1.975.79.9.9,0,0,0-.235.451c-.047.254-.009.348.226.593a1.076,1.076,0,0,0,.433.282c.085,0,1.044-.32,2.145-.706l1.985-.715,5.155,1.853c4.919,1.759,5.183,1.844,5.719,1.806a1.438,1.438,0,0,0,.884-.292c.677-.517.63.677.63-14.871,0-13.724,0-14-.188-14.344a1.615,1.615,0,0,0-.5-.564c-.169-.1-2.869-1.11-5.992-2.229-4.995-1.787-5.71-2.022-5.964-1.947-.16.047-2.8.988-5.869,2.1l-5.568,1.994-1.909-.677c-1.044-.376-1.928-.715-1.966-.743a2.6,2.6,0,0,1,.207-.856,5.534,5.534,0,0,0,.282-1.082.733.733,0,0,0-1.449-.2c-.075.207-.226.649-.339.969-.329.941-.856,1.627-3.612,4.769-2.21,2.511-2.653,2.972-2.859,2.972a.81.81,0,0,1-.357-.075c-.282-.179-5.2-5.888-5.559-6.443a6.843,6.843,0,0,1,1-8.635,6.55,6.55,0,0,1,3.725-1.938,6.885,6.885,0,0,1,6.49,2.417,8.331,8.331,0,0,1,1.364,2.615,1.928,1.928,0,0,0,.4.818.784.784,0,0,0,1.006-.094c.188-.2.207-.292.16-.687a8.63,8.63,0,0,0-1.825-3.734,8.727,8.727,0,0,0-4.308-2.681A10.723,10.723,0,0,0,11.168-490.58ZM34.985-471.8v7.591l-.64-.047a2.9,2.9,0,0,1-2.464-1.505c-.4-.865-.216-2.051.593-3.932a2.65,2.65,0,0,0,.179-2.417,3.217,3.217,0,0,0-2.314-1.336c-.658-.122-.809-.226-.809-.583,0-.376.508-.912,1.091-1.176a2.8,2.8,0,0,0,1.354-1.166,6.354,6.354,0,0,0,.4-1.825c.028-.254.094-.292,1.251-.724.677-.245,1.251-.451,1.3-.451S34.985-475.972,34.985-471.8Zm6.6-5.785c2.756.988,5.042,1.844,5.079,1.9.085.132.1,26.883.019,27.1a.249.249,0,0,1-.226.151c-.3,0-1.232-.4-1.185-.508a5.008,5.008,0,0,0,.6-2.1q.141-2.568-2.662-4.411a6.866,6.866,0,0,1-.959-.715,2.331,2.331,0,0,1-.32-2.352,4.079,4.079,0,0,1,1-1.693,3.062,3.062,0,0,0,.894-2.239,3.392,3.392,0,0,0-.705-2.088c-.969-1.317-1.966-1.411-4.985-.451-.818.254-1.533.47-1.571.47s-.075-3.349-.075-7.431.019-7.431.047-7.431S38.841-478.577,41.588-477.59Zm-35.875.668c1.58,1.891,5.286,6.011,5.568,6.189l.367.235.009,9.265v9.265l-4.919,1.759c-2.7.978-4.985,1.768-5.07,1.768a.234.234,0,0,1-.207-.151c-.028-.085-.056-6.2-.056-13.583,0-10.638.028-13.47.113-13.554s2.38-.95,3.913-1.486A1.282,1.282,0,0,1,5.712-476.922Zm16.649.809.959.339v13.714c0,7.544-.028,13.714-.056,13.714s-2.314-.809-5.079-1.806l-5.023-1.8v-18.577l.31-.179c.254-.151,3.8-4.092,5.409-6.02l.414-.48,1.044.376C20.922-476.621,21.825-476.3,22.361-476.113ZM41.55-464a2.435,2.435,0,0,1,.771,1.524,2.041,2.041,0,0,1-.724,1.458,6.613,6.613,0,0,0-1.251,2.521,4.265,4.265,0,0,0,.226,2.53,3.893,3.893,0,0,0,1.618,1.656c1.42.941,2.2,2.013,2.2,3.019a3.378,3.378,0,0,1-.546,1.693l-.16.207-3.593-1.289-3.6-1.289v-10.949l.546-.151c.292-.085.922-.282,1.383-.433C40.4-464.139,41.174-464.261,41.55-464Z" transform="translate(0)"/><path class="a" d="M27.995-269.853a1.471,1.471,0,0,0-.47.31,1.376,1.376,0,0,1-.922.47.934.934,0,0,0-.48.2.8.8,0,0,0-.047,1.129c.282.282,1.1.216,1.778-.132.48-.254.489-.254.734-.075a2.763,2.763,0,0,0,2.69.066c.433-.254.433-.254.7-.075a1.86,1.86,0,0,0,1.909.216.732.732,0,0,0-.047-1.1.939.939,0,0,0-.508-.226,1.233,1.233,0,0,1-.847-.48,1.185,1.185,0,0,0-1.016-.31,1.618,1.618,0,0,0-.555.32,1.374,1.374,0,0,1-.959.47,1.114,1.114,0,0,1-.818-.452,1.508,1.508,0,0,0-.828-.386A2.8,2.8,0,0,0,27.995-269.853Z" transform="translate(-23.439 -199.967)"/><path class="a" d="M27.995-230.853a1.47,1.47,0,0,0-.47.31,1.376,1.376,0,0,1-.922.47.934.934,0,0,0-.48.2.8.8,0,0,0-.047,1.129c.179.179.282.2.8.15a2.3,2.3,0,0,0,1.025-.292c.423-.254.423-.254.687-.075a2.739,2.739,0,0,0,2.69.075c.433-.254.433-.254.7-.075a1.86,1.86,0,0,0,1.909.216.732.732,0,0,0-.047-1.1.939.939,0,0,0-.508-.226,1.233,1.233,0,0,1-.847-.48,1.185,1.185,0,0,0-1.016-.31,1.618,1.618,0,0,0-.555.32,1.374,1.374,0,0,1-.959.47,1.114,1.114,0,0,1-.818-.452,1.508,1.508,0,0,0-.828-.386A2.79,2.79,0,0,0,27.995-230.853Z" transform="translate(-23.439 -235.299)"/><path class="a" d="M151.908-219.941a3.12,3.12,0,0,0-.48.376,1.367,1.367,0,0,1-.658.329,1.281,1.281,0,0,0-.574.245.741.741,0,0,0,.31,1.232,2.654,2.654,0,0,0,1.571-.357l.32-.216.367.216a2.666,2.666,0,0,0,2.7,0l.32-.216.367.216a2.3,2.3,0,0,0,1.637.32.847.847,0,0,0,.47-.743.817.817,0,0,0-.611-.668,1.622,1.622,0,0,1-1.072-.508,1.177,1.177,0,0,0-1.787.169c-.433.461-.978.4-1.627-.179A1.068,1.068,0,0,0,151.908-219.941Z" transform="translate(-135.877 -245.129)"/><path class="a" d="M151.908-180.941a3.121,3.121,0,0,0-.48.376,1.367,1.367,0,0,1-.658.329,1.282,1.282,0,0,0-.574.245.741.741,0,0,0,.31,1.232,2.654,2.654,0,0,0,1.571-.357l.32-.216.367.216a2.665,2.665,0,0,0,2.7,0l.32-.216.367.216a2.3,2.3,0,0,0,1.637.32.847.847,0,0,0,.47-.743.817.817,0,0,0-.611-.668,1.705,1.705,0,0,1-1.1-.517,1.15,1.15,0,0,0-1.759.179c-.433.461-.978.4-1.627-.179A1.068,1.068,0,0,0,151.908-180.941Z" transform="translate(-135.877 -280.461)"/><path class="a" d="M82-453.778a5.135,5.135,0,0,0-3.715,4.176,5.043,5.043,0,0,0,4.976,5.747,5.062,5.062,0,0,0,4.872-3.715,6.536,6.536,0,0,0,0-2.634,5.1,5.1,0,0,0-3.791-3.612A6.109,6.109,0,0,0,82-453.778Zm2.747,1.693a3.609,3.609,0,0,1,1.928,4.092,3.6,3.6,0,0,1-3.64,2.615,3.607,3.607,0,0,1-3.048-2.22,3.906,3.906,0,0,1,0-2.577,3.831,3.831,0,0,1,2.3-2.107A3.926,3.926,0,0,1,84.748-452.085Z" transform="translate(-70.88 -33.274)"/><path class="a" d="M275.928-170.784a3.844,3.844,0,0,0-.489.386,1.421,1.421,0,0,1-.753.367c-.771.141-1.035.781-.536,1.279.216.216.292.235.8.188a2.694,2.694,0,0,0,.978-.282l.423-.245.489.254a2.14,2.14,0,0,0,1.251.254,1.932,1.932,0,0,0,1.2-.254l.442-.254.48.245a2.845,2.845,0,0,0,.988.292c.442.038.546.009.743-.169a.775.775,0,0,0-.47-1.317,1.469,1.469,0,0,1-.978-.508,1.1,1.1,0,0,0-1.035-.292,2.411,2.411,0,0,0-.63.433c-.611.527-1.044.5-1.693-.122A1.163,1.163,0,0,0,275.928-170.784Z" transform="translate(-248.139 -289.686)"/><path class="a" d="M275.928-131.784a3.846,3.846,0,0,0-.489.386,1.421,1.421,0,0,1-.753.367c-.771.141-1.035.781-.536,1.279.216.216.292.235.8.188a2.694,2.694,0,0,0,.978-.282l.423-.245.489.254a2.14,2.14,0,0,0,1.251.254,1.932,1.932,0,0,0,1.2-.254l.442-.254.48.245a2.846,2.846,0,0,0,.988.292c.442.038.546.009.743-.169a.775.775,0,0,0-.47-1.317,1.469,1.469,0,0,1-.978-.508,1.1,1.1,0,0,0-1.035-.292,2.411,2.411,0,0,0-.63.433c-.611.527-1.044.5-1.693-.122A1.163,1.163,0,0,0,275.928-131.784Z" transform="translate(-248.139 -325.018)"/></g></svg>