<svg xmlns="http://www.w3.org/2000/svg" width="18.992" height="18.114" viewBox="0 0 18.992 18.114"><defs><style>.a{fill:#ffa000;}</style></defs><path class="a" d="M18.971,17.865q-.1-.314-.616-.394l-5.73-.833-2.568-5.194q-.24-.468-.559-.468t-.559.468L6.37,16.639l-5.73.833q-.514.08-.616.394t.263.679l4.155,4.041-.982,5.707a.886.886,0,0,0,.069.588.42.42,0,0,0,.388.211,1.017,1.017,0,0,0,.457-.137L9.5,26.26l5.125,2.694a1.021,1.021,0,0,0,.457.137.42.42,0,0,0,.388-.211.888.888,0,0,0,.068-.588l-.982-5.707L18.7,18.545Q19.074,18.179,18.971,17.865Zm-5.433,3.67-.559.537.137.753.685,4.052-3.63-1.918L9.5,24.606V13.614l1.815,3.675.342.685.754.114,4.064.593Z" transform="translate(-0.001 -10.977)"/></svg>