<svg xmlns="http://www.w3.org/2000/svg" width="19.466" height="18.633" viewBox="0 0 19.466 18.633"><defs><style>.a{fill:none;stroke:#ffa000;stroke-width:1.5px;}</style></defs><path class="a" d="M17.917,18.3a.525.525,0,0,0-.424-.358l-5.562-.808-2.488-5.04a.526.526,0,0,0-.943,0l-2.488,5.04L.45,17.938a.526.526,0,0,0-.291.9l4.025,3.923-.95,5.54A.526.526,0,0,0,4,28.852l4.975-2.616,4.975,2.616a.526.526,0,0,0,.763-.554l-.95-5.54,4.025-3.923A.525.525,0,0,0,17.917,18.3Z" transform="translate(0.761 -11.046)"/></svg>