<svg xmlns="http://www.w3.org/2000/svg" width="31.65" height="31.64" viewBox="0 0 31.65 31.64"><defs><style>.a{fill:#369;}</style></defs><g transform="translate(0 511.948)"><path class="a" d="M5.377-511.827A6.785,6.785,0,0,0,.352-507.4,6.265,6.265,0,0,0,0-505.153,6.317,6.317,0,0,0,.748-502c.13.253,1.316,2.231,2.639,4.388l2.4,3.924-.26.247a1.957,1.957,0,0,0-.124,2.67,2.021,2.021,0,0,0,.544.383,1.424,1.424,0,0,0,.847.192,1.731,1.731,0,0,0,1.619-.9l.192-.334H10.9c1.267,0,2.46.025,2.651.062a1.747,1.747,0,0,1,1.069.525,1.471,1.471,0,0,1,.494,1.267,1.471,1.471,0,0,1-.494,1.267,1.747,1.747,0,0,1-1.069.525c-.192.037-2.107.062-4.252.062-3.721,0-3.924.006-4.3.124a3.024,3.024,0,0,0-2.151,2.967,3.024,3.024,0,0,0,2.151,2.967c.377.117.581.124,3.906.124h3.5l.167-.161a.7.7,0,0,0,0-.915l-.167-.161H9.246c-1.737,0-3.319-.025-3.51-.062a1.747,1.747,0,0,1-1.069-.525,1.6,1.6,0,0,1-.513-1.156,1.751,1.751,0,0,1,1.576-1.9c.2-.037,2.089-.062,4.258-.062,3.721,0,3.924-.006,4.3-.124a3.024,3.024,0,0,0,2.151-2.966,3.022,3.022,0,0,0-2.157-2.967c-.365-.117-.581-.124-3.041-.124H8.591l-.13-.266a2.367,2.367,0,0,0-.389-.507l-.26-.247,2.4-3.924c2.509-4.1,2.818-4.635,3.053-5.34a7.7,7.7,0,0,0,.241-3.479,6.813,6.813,0,0,0-5.426-5.426A8.793,8.793,0,0,0,5.377-511.827Zm2.4,1.242a5.642,5.642,0,0,1,4.159,3.424,5.649,5.649,0,0,1-.031,4.11c-.142.352-5.037,8.461-5.1,8.461-.087,0-4.981-8.152-5.142-8.56a5.217,5.217,0,0,1-.358-2,5.312,5.312,0,0,1,1.644-3.924A5.452,5.452,0,0,1,7.775-510.585ZM7.2-492.452a.564.564,0,0,1-.414.958.513.513,0,0,1-.544-.556.513.513,0,0,1,.556-.556A.478.478,0,0,1,7.2-492.452Z" transform="translate(0 0)"/><path class="a" d="M62.151-451.848A3.038,3.038,0,0,0,60-448.875a3.008,3.008,0,0,0,3.09,3.09,3.008,3.008,0,0,0,3.09-3.09,3.022,3.022,0,0,0-2.157-2.966A3.768,3.768,0,0,0,62.151-451.848Zm1.582,1.279a2.162,2.162,0,0,1,1,.921,1.6,1.6,0,0,1,.124.773,1.471,1.471,0,0,1-.494,1.267,1.471,1.471,0,0,1-1.267.494,1.471,1.471,0,0,1-1.267-.494,1.6,1.6,0,0,1-.513-1.156,1.728,1.728,0,0,1,1.193-1.823A2.38,2.38,0,0,1,63.733-450.568Z" transform="translate(-56.292 -56.278)"/><path class="a" d="M282.366-345.827a6.785,6.785,0,0,0-5.025,4.431,6.265,6.265,0,0,0-.352,2.243,6.394,6.394,0,0,0,.791,3.232c.13.247,1.3,2.107,2.6,4.141s2.361,3.714,2.361,3.745-.087.105-.185.185a1.728,1.728,0,0,0-.377.47l-.192.34h-5.655l-.167.161a.524.524,0,0,0-.161.457.524.524,0,0,0,.161.457l.167.161h5.655l.192.334a1.731,1.731,0,0,0,1.619.9,1.424,1.424,0,0,0,.847-.192,1.714,1.714,0,0,0,1-1.669,1.455,1.455,0,0,0-.192-.853,1.948,1.948,0,0,0-.4-.55.758.758,0,0,1-.21-.21c0-.019,1.088-1.743,2.416-3.832,2.478-3.881,2.75-4.345,3-5.08a7.7,7.7,0,0,0,.241-3.479,6.813,6.813,0,0,0-5.426-5.426A8.792,8.792,0,0,0,282.366-345.827Zm2.4,1.242a5.642,5.642,0,0,1,4.159,3.424,5.2,5.2,0,0,1,.365,2.033,5.522,5.522,0,0,1-.457,2.219c-.179.4-4.969,7.954-5.043,7.954-.025,0-1.143-1.718-2.478-3.819-2.522-3.955-2.732-4.332-2.929-5.259a7.109,7.109,0,0,1,0-2.231,5.557,5.557,0,0,1,1.551-2.812A5.452,5.452,0,0,1,284.764-344.585Zm-.575,17.762a.564.564,0,0,1-.414.958.513.513,0,0,1-.544-.556.513.513,0,0,1,.556-.556A.478.478,0,0,1,284.189-326.823Z" transform="translate(-258.943 -155.741)"/><path class="a" d="M354.151-285.848A3.038,3.038,0,0,0,352-282.875a3.008,3.008,0,0,0,3.09,3.09,3.008,3.008,0,0,0,3.09-3.09,3.022,3.022,0,0,0-2.157-2.966A3.768,3.768,0,0,0,354.151-285.848Zm1.582,1.279a2.162,2.162,0,0,1,.995.921,1.6,1.6,0,0,1,.124.773,1.471,1.471,0,0,1-.494,1.267,1.471,1.471,0,0,1-1.267.494,1.471,1.471,0,0,1-1.267-.494,1.6,1.6,0,0,1-.513-1.156,1.728,1.728,0,0,1,1.193-1.823A2.379,2.379,0,0,1,355.733-284.568Z" transform="translate(-330.246 -212.019)"/><path class="a" d="M231.161-39.839a.524.524,0,0,0-.161.457.55.55,0,0,0,.618.618.55.55,0,0,0,.618-.618.524.524,0,0,0-.161-.457.524.524,0,0,0-.457-.161A.524.524,0,0,0,231.161-39.839Z" transform="translate(-216.724 -442.78)"/></g></svg>