<svg xmlns="http://www.w3.org/2000/svg" width="29.721" height="27.217" viewBox="0 0 29.721 27.217"><defs><style>.a{fill:#369;}</style></defs><g transform="translate(0.186 490.224)"><path class="a" d="M14.186-490.205a5.114,5.114,0,0,0-3.864,2.269c-.279.406-9.62,16.571-9.9,17.134a5.35,5.35,0,0,0-.313,4.224A5.333,5.333,0,0,0,3.747-463.2c.719.191,1.665.209,11.454.186,10.525-.023,9.876,0,10.792-.319a5.442,5.442,0,0,0,3.093-2.849,5.534,5.534,0,0,0-.064-4.514c-.215-.412-9.817-17.024-9.992-17.279A5.259,5.259,0,0,0,14.186-490.205Zm1.485,2.6a3.062,3.062,0,0,1,1.16.818c.261.313,9.876,16.943,10.079,17.43a2.864,2.864,0,0,1-.145,2.3,3.159,3.159,0,0,1-1.95,1.509c-.209.041-3.313.058-10.34.046l-10.038-.017-.377-.162A3.016,3.016,0,0,1,2.43-467.4a3.405,3.405,0,0,1-.017-1.9c.133-.331,9.527-16.618,9.934-17.227a2.755,2.755,0,0,1,1.6-1.166A3.567,3.567,0,0,1,15.671-487.606Z" transform="translate(0 0)"/><path class="a" d="M230.215-346.6a1.99,1.99,0,0,0-.76.574,2.005,2.005,0,0,0-.3,1.468c.11,2.112.395,6.754.424,6.853a1.162,1.162,0,0,0,1.114.783,1,1,0,0,0,.783-.279c.348-.325.337-.232.569-4.189.232-3.806.232-4.067.023-4.468a1.77,1.77,0,0,0-.7-.667A2.137,2.137,0,0,0,230.215-346.6Z" transform="translate(-216.029 -135.247)"/><path class="a" d="M230.667-161.477a1.534,1.534,0,0,0-1.189,1.81,1.52,1.52,0,0,0,2.634.725,1.764,1.764,0,0,0,.325-.5,2.232,2.232,0,0,0-.023-1.073,1.488,1.488,0,0,0-1.056-.94c-.128-.023-.267-.046-.313-.058A2.047,2.047,0,0,0,230.667-161.477Z" transform="translate(-216.307 -309.632)"/></g></svg>